<mxfile host="65bd71144e">
    <diagram id="uEJwy5--dpHFwWQ2IGf7" name="第1頁">
        <mxGraphModel dx="471" dy="262" grid="1" gridSize="10" guides="1" tooltips="1" connect="1" arrows="1" fold="1" page="1" pageScale="1" pageWidth="850" pageHeight="1100" math="0" shadow="0">
            <root>
                <mxCell id="0"/>
                <mxCell id="1" parent="0"/>
                <mxCell id="4" style="edgeStyle=none;html=1;entryX=0;entryY=0.5;entryDx=0;entryDy=0;endArrow=none;endFill=0;" parent="1" source="2" target="3" edge="1">
                    <mxGeometry relative="1" as="geometry"/>
                </mxCell>
                <mxCell id="5" value="&lt;font color=&quot;#322f2f&quot;&gt;1&lt;/font&gt;" style="edgeLabel;html=1;align=center;verticalAlign=top;resizable=0;points=[];fontColor=#000;" parent="4" vertex="1" connectable="0">
                    <mxGeometry x="-0.7785" y="-2" relative="1" as="geometry">
                        <mxPoint x="-11" as="offset"/>
                    </mxGeometry>
                </mxCell>
                <mxCell id="6" value="&lt;font color=&quot;#1b1818&quot;&gt;1..*&lt;/font&gt;" style="edgeLabel;html=1;align=center;verticalAlign=top;resizable=0;points=[];fontColor=#000;" parent="4" vertex="1" connectable="0">
                    <mxGeometry x="0.7908" y="-2" relative="1" as="geometry">
                        <mxPoint x="4" as="offset"/>
                    </mxGeometry>
                </mxCell>
                <mxCell id="7" value="&lt;font color=&quot;#000000&quot;&gt;教導&lt;/font&gt;" style="edgeLabel;html=1;align=center;verticalAlign=bottom;resizable=0;points=[];fontColor=#f0dbdb;" parent="4" vertex="1" connectable="0">
                    <mxGeometry x="-0.0377" y="1" relative="1" as="geometry">
                        <mxPoint as="offset"/>
                    </mxGeometry>
                </mxCell>
                <mxCell id="2" value="老師" style="html=1;fillColor=#1ba1e2;fontColor=#000;strokeColor=#2A09AF;" parent="1" vertex="1">
                    <mxGeometry x="200" y="190" width="110" height="50" as="geometry"/>
                </mxCell>
                <mxCell id="3" value="學生" style="html=1;fillColor=#1ba1e2;fontColor=#000;strokeColor=#2A09AF;" parent="1" vertex="1">
                    <mxGeometry x="440" y="190" width="110" height="50" as="geometry"/>
                </mxCell>
                <mxCell id="9" value="" style="triangle;whiteSpace=wrap;html=1;" vertex="1" parent="1">
                    <mxGeometry x="415" y="180" width="20" height="26.67" as="geometry"/>
                </mxCell>
            </root>
        </mxGraphModel>
    </diagram>
</mxfile>